<svg width="275" height="271" viewBox="0 0 275 271" fill="none" xmlns="http://www.w3.org/2000/svg">
<path fill-rule="evenodd" clip-rule="evenodd" d="M74.4471 161.71L16.139 219.161C6.07575 229.078 6.07575 245.177 16.139 255.094C26.2021 265.01 42.5387 265.01 52.6019 255.094L110.901 197.634C126.267 206.585 144.168 211.717 163.28 211.717C220.196 211.717 266.404 166.181 266.404 110.093C266.404 54.0048 220.196 8.46875 163.28 8.46875C106.364 8.46875 60.1558 54.0048 60.1558 110.093C60.1558 128.927 65.3635 146.568 74.4471 161.71ZM84.5532 175.7L28.299 231.136C24.9389 234.447 24.9389 239.808 28.299 243.11C31.6505 246.422 37.0903 246.422 40.4505 243.11L96.7047 187.674C92.3219 184.024 88.2571 180.019 84.5532 175.7ZM163.28 25.4061C210.708 25.4061 249.217 63.3543 249.217 110.093C249.217 156.832 210.708 194.78 163.28 194.78C115.851 194.78 77.3431 156.832 77.3431 110.093C77.3431 63.3543 115.851 25.4061 163.28 25.4061ZM163.28 42.3435C125.339 42.3435 94.5305 72.7037 94.5305 110.093C94.5305 147.482 125.339 177.842 163.28 177.842C201.221 177.842 232.029 147.482 232.029 110.093C232.029 72.7037 201.221 42.3435 163.28 42.3435ZM163.28 59.2808C191.734 59.2808 214.842 82.0531 214.842 110.093C214.842 138.133 191.734 160.905 163.28 160.905C134.826 160.905 111.718 138.133 111.718 110.093C111.718 82.0531 134.826 59.2808 163.28 59.2808ZM151.128 110.093L140.017 121.043C136.665 124.346 136.665 129.715 140.017 133.018C143.368 136.32 148.817 136.32 152.168 133.018L163.28 122.068L174.392 133.018C177.743 136.32 183.191 136.32 186.543 133.018C189.895 129.715 189.895 124.346 186.543 121.043C183.191 117.74 175.431 110.093 175.431 110.093L186.543 99.1429C189.895 95.8401 189.895 90.471 186.543 87.1682C183.191 83.8654 177.743 83.8654 174.392 87.1682L163.28 98.1182L152.168 87.1682C148.817 83.8654 143.368 83.8654 140.017 87.1682C136.665 90.471 136.665 95.8401 140.017 99.1429L151.128 110.093Z" fill="#001166"/>
</svg>
