<svg width="359" height="300" viewBox="0 0 359 300" fill="none" xmlns="http://www.w3.org/2000/svg">
<path d="M218 3.01935C202 2.61935 191.333 8.51935 188 11.5194C202.4 11.5194 218 40.8527 224 55.5194H356L347 3.01935C310.667 3.18602 234 3.41935 218 3.01935Z" fill="black" stroke="black" stroke-width="5"/>
<path d="M3 297V10.5V3H130C224.5 3.00024 224 169.5 130 169.5H68.5V297H3Z" fill="#001166" stroke="#001166" stroke-width="5"/>
<path d="M168 297.5V187C207.2 173 221.333 141.167 223.5 127H299V174H244.5L220.5 204.5V234H356.5V297.5H168Z" fill="black" stroke="black" stroke-width="5"/>
<path d="M67.5 117V42.5H104C163 42.5 170 117 104 117H67.5Z" fill="white" stroke="#001166" stroke-width="5"/>
</svg>
