<svg width="357" height="423" viewBox="0 0 357 423" fill="none" xmlns="http://www.w3.org/2000/svg">
<path d="M3 297V10.5V3H130C224.5 3.00024 224 169.5 130 169.5H68.5V297H3Z" fill="#001166" stroke="#001166" stroke-width="5"/>
<path d="M168 297.5V187C207.2 173 221.333 141.167 223.5 127H299V174H244.5L220.5 204.5V234H356.5V297.5H168Z" fill="black"/>
<path d="M67.5 117V42.5H104C163 42.5 170 117 104 117H67.5Z" fill="white" stroke="#001166" stroke-width="5"/>
<path d="M21.0133 335.067C20.5778 335.067 20.1422 335.067 19.7067 335.067C19.2711 335.067 18.8044 335.098 18.3067 335.16L16.0667 350.56H18.5867C21.5733 350.56 23.6578 349.191 24.84 346.453C25.2756 345.458 25.6178 344.213 25.8667 342.72C26.5511 337.618 24.9333 335.067 21.0133 335.067ZM10.56 328.627L21.6667 328.347C27.1422 328.347 30.8756 329.56 32.8667 331.987C34.92 334.413 35.5733 337.991 34.8267 342.72C34.1422 347.76 32.2133 351.524 29.04 354.013C26.3644 356.067 22.7556 357.093 18.2133 357.093C17.7156 357.093 17.2178 357.093 16.72 357.093C16.2222 357.093 15.7244 357.062 15.2267 357L13.2667 371H4.58667L10.56 328.627ZM44.2296 371L50.203 328.627H59.163L54.123 363.72H66.723L65.1363 371H44.2296ZM79.1359 328.627H88.0959L84.9226 351.213C84.1137 356.004 83.8337 359.178 84.0826 360.733C84.3937 362.289 84.8604 363.347 85.4826 363.907C86.167 364.467 87.1315 364.747 88.3759 364.747C91.7359 364.747 93.8204 362.227 94.6293 357.187C94.9404 355.507 95.2826 353.516 95.6559 351.213L98.7359 328.627H107.603L104.429 351.213C103.434 358.68 101.66 363.969 99.1093 367.08C96.5582 370.253 92.6693 371.84 87.4426 371.84C82.3404 371.84 78.887 370.253 77.0826 367.08C75.2782 363.907 74.8737 358.618 75.8693 351.213L79.1359 328.627ZM135.696 327.88C138.683 327.88 140.891 328.16 142.323 328.72C143.754 329.28 144.749 329.716 145.309 330.027C145.931 330.338 146.398 330.556 146.709 330.68L143.629 337.12L142.416 336.467C139.865 335.222 137.625 334.6 135.696 334.6C134.078 334.6 132.647 335.16 131.403 336.28C130.283 337.338 129.723 338.333 129.723 339.267C129.536 340.573 129.754 341.693 130.376 342.627C131.06 343.56 131.931 344.431 132.989 345.24C134.047 346.049 135.198 346.858 136.443 347.667C137.749 348.476 138.9 349.409 139.896 350.467C142.385 352.893 143.349 355.942 142.789 359.613C142.291 363.284 140.705 366.24 138.029 368.48C135.354 370.72 131.683 371.84 127.016 371.84C123.22 371.84 119.923 371.062 117.123 369.507C116.563 369.133 116.096 368.853 115.723 368.667L118.709 362.227C119.02 362.351 119.425 362.569 119.923 362.88C120.483 363.191 121.105 363.471 121.789 363.72C123.531 364.467 125.149 364.84 126.643 364.84C129.38 364.84 131.434 363.907 132.803 362.04C133.238 361.48 133.518 360.702 133.643 359.707C133.829 358.649 133.58 357.716 132.896 356.907C132.211 356.036 131.34 355.227 130.283 354.48C129.225 353.671 128.074 352.862 126.829 352.053C125.585 351.182 124.434 350.218 123.376 349.16C120.949 346.733 119.985 343.684 120.483 340.013C120.98 336.28 122.567 333.324 125.243 331.147C127.918 328.969 131.403 327.88 135.696 327.88Z" fill="black"/>
<path d="M183.866 371L189.839 328.627H212.706L211.586 335.907H197.866L196.466 345.707H206.919L205.986 352.52H195.439L193.853 363.72H207.759L206.826 371H183.866ZM240.113 356.16C235.322 364.373 232.366 369.32 231.246 371H220.98L235.82 349.72L227.42 328.627H237.593C237.842 329.436 238.371 331.209 239.18 333.947C239.989 336.684 240.611 338.738 241.046 340.107C241.482 341.476 241.762 342.533 241.886 343.28C242.446 341.973 243.504 340.044 245.06 337.493C247.051 334.32 248.793 331.364 250.286 328.627H260.553L246.18 349.813L255.14 371H244.593C243.971 369.382 243.317 367.422 242.633 365.12C241.949 362.818 241.389 360.951 240.953 359.52C240.517 358.089 240.237 356.969 240.113 356.16ZM290.026 336.933C289.59 337.991 289.092 339.329 288.532 340.947C287.972 342.564 287.35 344.307 286.666 346.173C285.981 347.978 285.266 349.876 284.519 351.867C283.834 353.796 283.119 355.693 282.372 357.56H291.519C291.394 355.693 291.239 353.796 291.052 351.867C290.866 349.876 290.71 347.978 290.586 346.173C290.461 344.307 290.337 342.564 290.212 340.947C290.088 339.329 290.026 337.991 290.026 336.933ZM286.012 328.627H296.746L302.346 371H292.919L292.079 363.627H280.226L277.239 371H268.279L286.012 328.627ZM345.065 344.027L334.985 367.453H328.825C328.7 366.458 328.296 363.938 327.611 359.893C326.927 355.787 326.46 352.956 326.211 351.4C325.714 347.542 325.371 345.084 325.185 344.027L319.678 371H310.998L320.891 328.627H329.665C329.727 329.249 329.882 330.244 330.131 331.613C330.38 332.92 330.629 334.413 330.878 336.093C331.189 337.711 331.5 339.484 331.811 341.413C332.122 343.342 332.402 345.209 332.651 347.013C332.9 348.756 333.118 350.373 333.305 351.867C333.491 353.36 333.647 354.542 333.771 355.413C334.02 354.604 334.456 353.453 335.078 351.96C335.762 350.467 336.478 348.818 337.225 347.013C337.971 345.209 338.78 343.373 339.651 341.507C340.522 339.578 341.331 337.773 342.078 336.093C342.887 334.413 343.571 332.92 344.131 331.613C344.754 330.244 345.22 329.249 345.531 328.627H354.305L352.251 371H343.198C343.26 370.316 343.322 369.289 343.385 367.92C343.447 366.551 343.54 365.027 343.665 363.347C343.851 361.604 343.976 359.8 344.038 357.933C344.162 356.067 344.287 354.262 344.411 352.52C344.536 350.778 344.66 349.16 344.785 347.667C344.909 346.111 345.002 344.898 345.065 344.027Z" fill="#001166"/>
<path d="M223.5 66.5C229.5 43.3 206.833 9.83333 197 3H356.5V66.5H223.5Z" fill="black"/>
</svg>
